<svg height="512" viewBox="0 0 58 56" width="512" xmlns="http://www.w3.org/2000/svg"><g id="Page-1" fill="none" fill-rule="evenodd"><g id="066---Coffee-Beans" fill-rule="nonzero"><path id="Shape" d="m18.34 39.76-6.26-8.23 3.92-30.66c.0626778-.49853749.4875415-.8719026.99-.87l35.12-.00000724-1.11 27.00000724-4.89 20h-14.6z" fill="#f3d55b"/><path id="Shape" d="m57.99 40.17c.0725492.4781438-.2106199.9388219-.67 1.09l-3.32 1.11-1.89.63-.11.07-5.89 3.93 6-47z" fill="#e4c05c"/><g fill="#b19046"><path id="Shape" d="m54 29v13.37l-1.89.63-.11.07v-14.07c0-.5522847.4477153-1 1-1s1 .4477153 1 1z"/><path id="Shape" d="m46 9h-2c-.5522847 0-1-.44771525-1-1s.4477153-1 1-1h2c.5522847 0 1 .44771525 1 1s-.4477153 1-1 1z"/><path id="Shape" d="m40 9h-2c-.5522847 0-1-.44771525-1-1s.4477153-1 1-1h2c.5522847 0 1 .44771525 1 1s-.4477153 1-1 1z"/><path id="Shape" d="m34 9h-2c-.5522847 0-1-.44771525-1-1s.4477153-1 1-1h2c.5522847 0 1 .44771525 1 1s-.4477153 1-1 1z"/><path id="Shape" d="m27.909 9h-2c-.5522847 0-1-.44771525-1-1s.4477153-1 1-1h2c.5522847 0 1 .44771525 1 1s-.4477153 1-1 1z"/><path id="Shape" d="m21.909 9h-2c-.5522847 0-1-.44771525-1-1s.4477153-1 1-1h2c.5522847 0 1 .44771525 1 1s-.4477153 1-1 1z"/></g><path id="Shape" d="m22.719 17c-.4981381.0000755-.9202607.3667678-.99.86l-1.72 12c-.0405706.286935.0453261.5773591.2354462.7960643.1901201.2187053.465765.3441816.7555538.3439357h18.24c.4981381-.0000755.9202607-.3667678.99-.86l1.72-12c.040546-.2867621-.0452221-.5770182-.2351184-.7956867-.1898962-.2186684-.4652673-.3442694-.7548816-.3443133z" fill="#ecf0f1"/><path id="Shape" d="m30.96 40.15h-.01c-2.46 2.34-4.33.56-6.79 3.02-2.51 2.5-.63 4.38-3.14 6.88-2.47 2.46-4.33.68-6.8 3.02-.1816684-.2948653-.3420753-.6023119-.48-.92-1.38-3.25-.2-7.79 3.21-11.17.4364844-.436275.9007913-.8437962 1.39-1.22 3.99-3.06 8.99-3.43 11.78-.66.0845914.0793196.1615923.166364.23.26.2235261.2471046.4274756.5112359.61.79z" fill="#a56a43"/><path id="Shape" d="m31.51 47c-.6593658 1.983455-1.7840509 3.7802079-3.28 5.24-4.15 4.15-10.05 4.98-13.17 1.88-.065429-.0615728-.1256356-.128469-.18-.2-.0195386-.0174207-.0363883-.0376402-.05-.06-.2258665-.2451383-.4299699-.509469-.61-.79 2.47-2.34 4.33-.56 6.8-3.02 2.51-2.5.63-4.38 3.14-6.88 2.46-2.46 4.33-.68 6.79-3.02h.01c.1816295.291422.3420441.5955414.48.91.7260512 1.9092293.7508572 4.0141909.07 5.94z" fill="#805333"/><path id="Shape" d="m7.82 47.67c0 4.09 3.04 4.15 3.14 8.15v.01c-.3267482.0695068-.6573273.1195945-.99.15-5.45.42-9.98-5.33-9.97-12.48-.01-5.71 2.89-10.54 6.83-12.02.32013946-.1300417.65152609-.2304619.99-.3.1 4 3.14 4.06 3.14 8.15 0 4.17-3.14 4.17-3.14 8.34z" fill="#cf976a"/><path id="Shape" d="m16.95 40.98c-3.74 3.71-4.8 8.82-2.73 12.09.1935553.3029121.4144803.5874367.66.85-.8784187.7036936-1.8688882 1.2547056-2.93 1.63-.3230466.1163684-.6538586.2099314-.99.28v-.01c-.1-4-3.14-4.06-3.14-8.15 0-4.17 3.14-4.17 3.14-8.34 0-4.09-3.04-4.15-3.14-8.15.32661372-.0702436.65723754-.1203381.99-.15.19268886-.0199665.38627943-.0299798.58-.03.9222291.0038234 1.8352455.1837114 2.69.53 2.99 1.18 5.34 4.28 6.26 8.23-.4892087.3762038-.9535156.783725-1.39 1.22z" fill="#cb8252"/><path id="Shape" d="m36 23h-10c-.5522847 0-1-.4477153-1-1s.4477153-1 1-1h10c.5522847 0 1 .4477153 1 1s-.4477153 1-1 1z" fill="#bdc3c7"/><path id="Shape" d="m34 27h-7c-.5522847 0-1-.4477153-1-1s.4477153-1 1-1h7c.5522847 0 1 .4477153 1 1s-.4477153 1-1 1z" fill="#bdc3c7"/><path id="Shape" d="m33.59 47h-2.08c.8354779-2.2527601.6342144-4.759405-.55-6.85-.2426468-.3783144-.5241767-.7302268-.84-1.05-2.79-2.77-7.79-2.4-11.78.66-.92-3.95-3.27-7.05-6.26-8.23l.26-2.04.48.18c3.0709664 1.3434726 5.4640597 3.8773361 6.63 7.02 1.7857233-.932653 3.7655752-1.432754 5.78-1.46 2.3417989-.0510636 4.6079714.8302257 6.3 2.45.4142036.4226249.7859813.884835 1.11 1.38 1.4051673 2.4000288 1.7492951 5.2762131.95 7.94z" fill="#f0c419"/><path id="Shape" d="m10.18 51.22c1.0578728 1.2046261 1.6811129 2.7292758 1.77 4.33-.3230466.1163684-.6538586.2099314-.99.28-.3267482.0695068-.6573273.1195945-.99.15 0-.04-.01-.09-.01-.14-.0296204-1.267844-.51612844-2.4823385-1.37-3.42-2.36019341-2.7344799-2.36019341-6.7855201 0-9.52.89472883-.972053 1.38473725-2.2489362 1.37-3.57.01967568-1.314128-.46734147-2.585386-1.36-3.55-1.05039472-1.1974689-1.67302622-2.7100765-1.77-4.3.32013946-.1300417.65152609-.2304619.99-.3.32661372-.0702436.65723754-.1203381.99-.15.00829479.0428082.01165007.0864268.01.13.0296204 1.267844.51612844 2.4823385 1.37 3.42 2.3601934 2.7344799 2.3601934 6.7855201 0 9.52-.89472883.972053-1.38473725 2.2489362-1.37 3.57-.01967568 1.314128.46734147 2.585386 1.36 3.55z" fill="#805333"/><path id="Shape" d="m31.44 41.06c-1.0302926.9064592-2.3308168 1.4477585-3.7 1.54-2.2403432.1239468-4.0306617 1.9099616-4.16 4.15-.2441165 3.1317553-2.7374298 5.6165735-5.87 5.85-1.0482686.0459185-2.0438049.4725769-2.8 1.2-.03.02-.05.04-.08.06-.2258665-.2451383-.4299699-.509469-.61-.79-.1816684-.2948653-.3420753-.6023119-.48-.92 1.031467-.8967728 2.3265973-1.433778 3.69-1.53 2.2444417-.11859 4.0406209-1.9061543 4.17-4.15.2442863-3.1278827 2.7317046-5.6110563 5.86-5.85 1.046611-.0446501 2.041487-.4674723 2.8-1.19.0274939-.0263883.0576559-.0498476.09-.07.2235261.2471046.4274756.5112359.61.79.1816295.291422.3420441.5955414.48.91z" fill="#603e26"/></g></g></svg>